<?xml version="1.0" encoding="UTF-8"?>
<svg width="357px" height="62px" viewBox="0 0 357 62" version="1.1" xmlns="http://www.w3.org/2000/svg" xmlns:xlink="http://www.w3.org/1999/xlink">
    <!-- Generator: Sketch 54.1 (76490) - https://sketchapp.com -->
    <title>Shape</title>
    <desc>Created with Sketch.</desc>
    <g id="desktop-/-explore" stroke="none" stroke-width="1" fill="none" fill-rule="evenodd">
        <g id="desktop-/-explore-13-copy" transform="translate(-653.000000, -1031.000000)" fill="#000000">
            <path d="M855.552328,1069.23051 C858.278946,1067.33927 860.758583,1065.14561 863.235981,1062.92794 C862.89812,1062.89699 862.579011,1062.89713 862.265349,1062.93714 C861.729052,1063.00597 861.161532,1062.93074 860.667653,1063.21481 C860.021956,1063.58593 859.348968,1063.92565 858.760085,1064.374 C858.044012,1064.91914 857.345787,1065.51142 856.743828,1066.17752 C855.855864,1067.15923 855.125183,1068.26957 854.469932,1069.42357 C854.408678,1069.53225 854.3826,1069.66199 854.340117,1069.78158 C854.37131,1069.80901 854.402855,1069.8361 854.434048,1069.86353 C854.808012,1069.65393 855.201825,1069.47342 855.552328,1069.23051 Z M846.008787,1072.20252 C846.757969,1069.91595 847.507481,1067.62972 848.280774,1065.26977 C846.631442,1066.12502 846.078721,1067.57504 845.912748,1069.21333 C845.822301,1070.109 845.875677,1071.01927 845.868744,1071.92299 C845.867938,1072.01462 845.900303,1072.10639 845.917638,1072.19763 C845.948017,1072.19938 845.978738,1072.20113 846.008787,1072.20252 Z M907.785665,1051.29672 C908.709813,1051.34541 909.646686,1051.33332 910.55039,1051.58548 C910.80951,1051.6578 911.055782,1051.77482 911.353792,1051.8892 C911.010464,1052.42616 910.466578,1052.12466 910.072567,1052.30106 C910.271572,1052.38086 910.592931,1052.24775 910.677214,1052.62555 C910.252771,1052.8409 909.789022,1052.88901 909.335449,1052.93952 C907.84939,1053.10549 906.363014,1053.27077 904.873262,1053.39557 C903.383534,1053.51969 901.890293,1053.59751 900.398235,1053.69043 C899.232139,1053.76326 898.065888,1053.84053 896.899154,1053.89247 C896.028034,1053.93148 895.155391,1053.92597 894.283994,1053.95335 C893.256786,1053.98622 892.230121,1054.04271 891.202479,1054.06839 C890.926221,1054.0755 890.792201,1054.19156 890.674843,1054.4279 C889.905358,1055.97364 889.083737,1057.4943 888.354978,1059.0589 C887.752273,1060.3536 887.24547,1061.69338 886.713146,1063.01962 C886.383086,1063.84262 886.07326,1064.67385 885.7746,1065.50856 C885.348989,1066.69761 884.974543,1067.90041 884.975583,1069.18302 C884.97573,1069.30616 884.964778,1069.43369 884.99215,1069.55093 C885.097796,1069.99275 885.245484,1070.11214 885.683536,1069.99679 C886.161984,1069.87053 886.620087,1069.67071 887.089151,1069.50958 C887.278148,1069.44504 887.475533,1069.40474 887.664529,1069.3402 C887.824791,1069.2856 887.990531,1069.23085 888.133456,1069.14384 C889.756401,1068.1529 891.323041,1067.07997 892.851117,1065.94584 C894.249988,1064.90741 895.657808,1063.87715 897.109101,1062.91443 C898.515229,1061.98159 900.026656,1061.2361 901.691782,1060.86877 C902.436974,1060.70429 903.190024,1060.58899 903.954697,1060.80688 C904.67433,1061.01191 905.231904,1061.42094 905.67829,1062.01694 C906.425635,1063.01506 906.592872,1064.1417 906.462053,1065.34138 C906.414804,1065.77376 906.372243,1066.20903 906.288268,1066.63533 C906.108499,1067.55217 905.665313,1068.36301 905.177756,1069.14187 C904.682925,1069.93312 904.190668,1070.73883 903.588961,1071.44667 C903.101376,1072.02065 902.476557,1072.48929 901.871166,1072.95005 C900.487226,1074.00166 898.962069,1074.81713 897.354738,1075.46864 C895.907344,1076.05528 894.417445,1076.51731 892.856055,1076.68578 C891.944894,1076.78428 891.051683,1076.67237 890.196637,1076.31964 C889.861155,1076.18138 889.615693,1075.96281 889.525845,1075.59747 C889.518331,1075.56779 889.515047,1075.5345 889.500228,1075.50833 C889.386183,1075.30701 889.203389,1075.11559 889.174881,1074.90357 C889.149799,1074.72074 889.317264,1074.51864 889.368771,1074.31693 C889.452821,1073.9864 889.710255,1073.7936 890.057851,1073.8396 C890.212073,1073.86003 890.373448,1073.87148 890.515486,1073.9274 C891.222906,1074.20793 891.951581,1074.15403 892.685261,1074.10372 C893.624618,1074.04008 894.550931,1073.87987 895.423488,1073.54506 C896.567846,1073.10551 897.688532,1072.59947 898.802013,1072.08428 C900.334404,1071.37508 901.680558,1070.39672 902.762685,1069.09481 C903.503847,1068.2034 904.139183,1067.22791 904.34009,1066.05838 C904.425509,1065.56133 904.470546,1065.01601 904.354974,1064.5352 C904.159376,1063.7212 903.225661,1063.19232 902.328096,1063.31283 C901.476227,1063.42742 900.673408,1063.70447 899.891017,1064.0821 C897.768236,1065.10654 895.946499,1066.57962 894.033022,1067.91781 C893.126763,1068.55174 892.213334,1069.17549 891.290159,1069.78454 C890.459056,1070.33285 889.632306,1070.89362 888.762771,1071.37697 C888.073554,1071.76025 887.338097,1072.07693 886.59351,1072.34164 C886.178285,1072.48892 885.704869,1072.50043 885.255516,1072.51826 C884.580803,1072.54498 884.102091,1072.16948 883.75829,1071.63281 C883.444319,1071.14302 883.229725,1070.58898 883.218787,1070.01093 C883.206842,1069.39316 883.243671,1068.75966 883.373475,1068.15711 C883.619873,1067.01687 883.944351,1065.89337 884.241656,1064.76449 C884.826365,1062.54536 885.732961,1060.44247 886.589548,1058.3221 C886.875147,1057.61657 887.226512,1056.93762 887.539447,1056.24261 C887.807823,1055.64832 888.065081,1055.04919 888.325377,1054.4512 C888.360752,1054.36864 888.382312,1054.28012 888.419396,1054.16821 C887.99748,1054.04676 887.684891,1054.08544 887.336524,1054.37494 C886.127919,1055.38102 884.883218,1056.34344 883.6487,1057.31784 C883.085629,1057.76161 882.534847,1058.22565 881.941168,1058.62527 C880.907933,1059.32042 879.881061,1060.03906 878.785678,1060.62363 C877.782292,1061.15942 876.685305,1061.50588 875.505399,1061.34737 C875.19698,1061.30582 874.891254,1061.24589 874.585493,1061.18699 C874.065373,1061.0864 873.928782,1061.12917 873.676494,1061.59577 C873.291507,1062.30706 872.894966,1063.01625 872.56922,1063.75492 C871.815931,1065.46368 871.133036,1067.20363 870.36326,1068.90464 C869.67687,1070.42147 868.917767,1071.90498 868.177849,1073.39737 C867.956728,1073.84317 867.71165,1074.27958 867.443599,1074.69808 C867.26056,1074.98378 867.03848,1075.25135 866.798236,1075.49058 C866.435395,1075.85174 865.760597,1075.83194 865.476033,1075.41089 C865.288081,1075.13208 865.191461,1074.7648 865.147236,1074.42499 C865.11812,1074.20098 865.211956,1073.93303 865.323259,1073.72316 C865.658205,1073.09322 866.028741,1072.48232 866.443038,1071.76418 C866.141564,1071.7882 865.943143,1071.79939 865.745377,1071.82122 C864.499034,1071.95897 863.502994,1071.37353 863.094456,1070.29114 C862.693424,1069.22884 862.736311,1068.15742 862.967041,1067.07409 C863.028362,1066.78722 863.084936,1066.49917 863.156344,1066.1487 C863.038524,1066.20238 862.96784,1066.21873 862.917499,1066.25972 C861.315062,1067.57424 859.728317,1068.90948 858.107513,1070.20147 C857.086536,1071.01573 856.053277,1071.81931 854.848253,1072.37029 C854.093323,1072.71571 852.935231,1072.481 852.513385,1071.84824 C852.214685,1071.40104 852.093133,1070.88582 852.060819,1070.35183 C852.020908,1069.68281 852.315447,1069.11303 852.597856,1068.53804 C853.435214,1066.83118 854.57869,1065.33955 855.832671,1063.92531 C855.975086,1063.76474 856.134092,1063.61878 856.2625,1063.3794 C855.980712,1063.39795 855.698821,1063.40965 855.418101,1063.43679 C853.832544,1063.5921 852.272281,1063.87519 850.750497,1064.35902 C850.510819,1064.43513 850.401505,1064.56846 850.319833,1064.79169 C849.893608,1065.95917 849.44882,1067.1195 849.018884,1068.28548 C848.793002,1068.89699 848.578273,1069.51231 848.367937,1070.12915 C847.820708,1071.73532 847.277518,1073.34335 846.736707,1074.95179 C846.572639,1075.43857 846.423789,1075.93033 846.262749,1076.41858 C846.21913,1076.55113 846.170633,1076.68625 846.099773,1076.80553 C845.735585,1077.42076 844.940349,1077.46105 844.536099,1076.86311 C844.238514,1076.42314 844.034599,1075.93548 844.011044,1075.38571 C843.952828,1074.01663 843.861392,1072.64877 843.825086,1071.27908 C843.779275,1069.55473 843.941576,1067.85508 844.572015,1066.22651 C845.161144,1064.70355 846.203454,1063.59178 847.642695,1062.84685 C848.084024,1062.61805 848.542516,1062.41688 849.005793,1062.23537 C849.247494,1062.14052 849.386047,1062.0024 849.464383,1061.75717 C849.836389,1060.58506 850.211105,1059.41373 850.603051,1058.24847 C850.995692,1057.0829 851.410276,1055.92561 851.813717,1054.76418 C852.263217,1053.46891 852.702234,1052.1702 853.163228,1050.87876 C853.393366,1050.23354 853.665398,1049.60312 853.912449,1048.96327 C854.265189,1048.04906 854.613559,1047.13264 854.961918,1046.21656 C855.055722,1045.96914 855.125275,1045.71095 855.235225,1045.47127 C855.453968,1044.99563 855.899418,1044.82513 856.364797,1044.74014 C856.697304,1044.67959 857.096683,1045.21135 857.191272,1045.61721 C857.395558,1046.49581 857.054546,1047.26029 856.697964,1047.99071 C855.807358,1049.81199 854.963604,1051.65303 854.242193,1053.54589 C853.654812,1055.08738 853.131901,1056.65336 852.582667,1058.20918 C852.261522,1059.11971 851.944404,1060.03243 851.625956,1060.94408 C851.580005,1061.07484 851.537117,1061.20605 851.466914,1061.41428 C851.674065,1061.39791 851.835751,1061.40048 851.991055,1061.37034 C853.690893,1061.0374 855.40879,1060.8631 857.13588,1060.75856 C858.253913,1060.69089 859.373804,1060.62876 860.487076,1060.51134 C861.134514,1060.44297 861.766461,1060.24033 862.413104,1060.15552 C862.809276,1060.10334 863.221535,1060.13894 863.623617,1060.17214 C864.067304,1060.20884 864.293595,1060.57483 864.672335,1060.89451 C864.502097,1060.99972 864.384646,1061.07223 864.260891,1061.14897 C864.362598,1061.46855 864.71319,1061.69319 864.430498,1062.10981 C864.625141,1062.08925 864.699694,1062.08946 864.770049,1062.07276 C865.433264,1061.91499 865.931172,1062.32844 865.924322,1063.01429 C865.921942,1063.25875 866.022595,1063.51057 865.991393,1063.74787 C865.93316,1064.19115 865.83701,1064.6331 865.713231,1065.06315 C865.442312,1066.0045 865.119569,1066.93139 864.870346,1067.87829 C864.782771,1068.21178 864.808862,1068.59097 864.854485,1068.93971 C864.900402,1069.28983 865.042015,1069.34813 865.398906,1069.3924 C865.86103,1069.44958 866.29424,1069.33577 866.729595,1069.2193 C866.985066,1069.15126 867.234643,1069.03651 867.493795,1069.00999 C867.963363,1068.96174 868.176344,1068.68052 868.34326,1068.27866 C868.898205,1066.94124 869.451502,1065.60206 870.052591,1064.28507 C870.601848,1063.08119 871.180807,1061.8886 871.810359,1060.72617 C872.118185,1060.15788 872.535529,1059.63651 872.967676,1059.15156 C873.505562,1058.54753 874.227628,1058.38908 875.014503,1058.52942 C875.212998,1058.56508 875.406474,1058.62691 875.602382,1058.67787 C876.328395,1058.86671 877.006282,1058.71971 877.694481,1058.45371 C878.826116,1058.01611 879.815545,1057.34131 880.797062,1056.65803 C881.525134,1056.15127 882.204682,1055.57476 882.905065,1055.02838 C883.210957,1054.78973 883.513869,1054.54824 883.817381,1054.30916 C883.791036,1054.27028 883.773361,1054.22794 883.762017,1054.22959 C882.993209,1054.33579 882.218512,1054.41476 881.459331,1054.5685 C881.084553,1054.64468 880.730581,1054.71269 880.356314,1054.61754 C880.17494,1054.57153 879.991374,1054.50013 879.808719,1054.5006 C879.414325,1054.50187 879.15765,1054.2812 878.968396,1053.99071 C878.75966,1053.67048 878.50505,1053.33188 878.445438,1052.97238 C878.322679,1052.22728 879.020779,1051.46228 879.791307,1051.43412 C882.016582,1051.35313 884.24241,1051.24651 886.468334,1051.24489 C887.228673,1051.24408 887.789986,1051.07591 888.318059,1050.52763 C889.213834,1049.59646 890.202289,1048.7537 891.098076,1047.8222 C892.469081,1046.39665 893.769532,1044.90537 894.965323,1043.32595 C895.275825,1042.91611 895.60333,1042.51883 895.933144,1042.12403 C896.051662,1041.98178 896.187705,1041.84699 896.336859,1041.7383 C896.84326,1041.36985 897.354612,1041.53546 897.560533,1042.12237 C897.616511,1042.28234 897.684576,1042.43897 897.729844,1042.60198 C897.813677,1042.90452 897.817587,1043.17451 897.6635,1043.49302 C897.294134,1044.25651 896.646541,1044.78968 896.164592,1045.45689 C895.326082,1046.61886 894.487962,1047.77948 893.76308,1049.01759 C893.369924,1049.68858 892.962684,1050.35156 892.563829,1051.01928 C892.526401,1051.08227 892.502363,1051.1536 892.446331,1051.27922 C892.631154,1051.30483 892.777323,1051.34037 892.923625,1051.34274 C894.903457,1051.37563 896.883408,1051.43451 898.863011,1051.42497 C900.872382,1051.41511 902.881986,1051.33001 904.891322,1051.29175 C905.855786,1051.2731 906.823269,1051.24635 907.785665,1051.29672 Z M959.769146,1062.96025 C960.112324,1062.0652 960.45416,1061.16941 960.79932,1060.26656 C960.131017,1060.12933 959.707087,1060.43774 959.6462,1061.0256 C959.604831,1061.42671 959.518502,1061.82249 959.457368,1062.22155 C959.356082,1062.87913 959.258883,1063.53721 959.160318,1064.19523 C959.200186,1064.20928 959.240066,1064.22298 959.279933,1064.23703 C959.41496,1063.86689 959.548632,1063.49636 959.685355,1063.12663 C959.706866,1063.06889 959.74661,1063.01795 959.769146,1062.96025 Z M989.539334,1031.41115 C989.688232,1031.67218 990.007348,1031.81876 989.999871,1032.18959 C989.988609,1032.75695 989.843789,1033.2704 989.464065,1033.6939 C988.73738,1034.50373 987.991784,1035.29683 987.263768,1036.1056 C986.628291,1036.81088 986.015009,1037.53678 985.375223,1038.23815 C984.487568,1039.21099 983.796621,1040.31963 983.139826,1041.4493 C982.4121,1042.70031 981.678931,1043.95044 981.011974,1045.23401 C980.302868,1046.59819 979.653201,1047.99386 979.005949,1049.38893 C978.234069,1051.05224 977.473954,1052.72143 976.744508,1054.40366 C976.318257,1055.38577 976.03365,1056.43507 975.546361,1057.38255 C975.282568,1057.89457 975.1672,1058.4559 974.869855,1058.94932 C974.690486,1059.24745 974.618025,1059.60849 974.484831,1059.93594 C974.268218,1060.46808 974.039122,1060.99534 973.819812,1061.52636 C973.774613,1061.6356 973.746951,1061.75195 973.785459,1061.91267 C974.098163,1061.55729 974.41686,1061.20656 974.721922,1060.84476 C975.397386,1060.04236 976.140529,1059.30971 976.993251,1058.7006 C977.344016,1058.45018 977.739438,1058.25296 978.13418,1058.07521 C979.205817,1057.59276 980.335651,1057.52995 981.476021,1057.72369 C982.05709,1057.8223 982.532125,1058.17578 982.968133,1058.5597 C984.130768,1059.58498 984.676668,1060.93553 984.986639,1062.41156 C985.137117,1063.12685 985.344036,1063.83214 985.462895,1064.5518 C985.726987,1066.15654 985.777898,1067.77403 985.688663,1069.39893 C985.624183,1070.57938 985.567501,1071.76182 985.56762,1072.9435 C985.567846,1073.90664 985.636418,1074.87147 985.714709,1075.83221 C985.767832,1076.48527 985.521356,1077.02047 985.140454,1077.49729 C984.859297,1077.85035 984.337427,1077.71174 984.175053,1077.28812 C983.891724,1076.54767 983.615112,1075.80096 983.494408,1075.01659 C983.402388,1074.41963 983.345736,1073.80886 983.353115,1073.20579 C983.376009,1071.41406 983.434819,1069.62222 983.486432,1067.83081 C983.512611,1066.90485 983.379498,1065.9959 983.187919,1065.0962 C982.991627,1064.17478 982.796514,1063.24896 982.528062,1062.34691 C982.320234,1061.64809 982.027723,1060.9747 981.321046,1060.58474 C980.661676,1060.22107 979.974177,1060.15362 979.245575,1060.25438 C978.289473,1060.38619 977.621102,1060.99525 976.957335,1061.60959 C976.141938,1062.36435 975.479551,1063.24278 974.894904,1064.18686 C974.455603,1064.89626 973.958068,1065.56908 973.508721,1066.27232 C973.209125,1066.74205 972.945988,1067.23529 972.670816,1067.72058 C972.297256,1068.37892 971.906854,1069.02984 971.563867,1069.70395 C971.335805,1070.15258 971.072672,1070.55758 970.728957,1070.92933 C970.366373,1071.3223 969.945712,1071.32163 969.489649,1071.24756 C969.42264,1071.23701 969.337793,1071.17899 969.308735,1071.11983 C969.153547,1070.80385 968.999786,1070.48622 968.872709,1070.15857 C968.73869,1069.81427 968.818632,1069.53284 969.05978,1069.21874 C969.29698,1068.90997 969.408537,1068.49694 969.543179,1068.11824 C969.955077,1066.95949 970.357176,1065.79733 970.752856,1064.63289 C971.053222,1063.74933 971.323496,1062.85584 971.633319,1061.9757 C971.953027,1061.06717 972.301448,1060.16888 972.641767,1059.26757 C972.982145,1058.36455 973.316788,1057.45928 973.674373,1056.56302 C974.065733,1055.58107 974.473958,1054.60586 974.88654,1053.6332 C975.183964,1052.93184 975.495521,1052.23713 975.809457,1051.54285 C976.180461,1050.72264 976.574714,1049.91248 976.931562,1049.08631 C977.102704,1048.69076 977.211179,1048.26804 977.347955,1047.85761 C977.316219,1047.83598 977.283799,1047.81433 977.251721,1047.79268 C976.93984,1048.1245 976.618668,1048.44812 976.318422,1048.78957 C975.566885,1049.64506 974.754299,1050.43685 973.893108,1051.18076 C973.292179,1051.69983 972.717847,1052.2506 972.103803,1052.75348 C970.900709,1053.73889 969.69626,1054.72392 968.458471,1055.66469 C967.480661,1056.40829 966.461941,1057.09917 965.44334,1057.78663 C964.851381,1058.18596 964.245714,1058.57626 963.60711,1058.89119 C962.923957,1059.22817 962.674151,1059.80977 962.503857,1060.47487 C962.466239,1060.62165 962.424876,1060.76796 962.380144,1060.91278 C962.220954,1061.42641 962.059738,1061.93928 961.899534,1062.45253 C961.885674,1062.49685 961.88645,1062.55297 961.859001,1062.58484 C961.525693,1062.972 961.377018,1063.43914 961.232685,1063.91908 C961.130938,1064.25686 960.903967,1064.55676 960.798815,1064.89408 C960.511155,1065.81535 960.033196,1066.65235 959.663719,1067.53656 C959.532674,1067.85143 959.418471,1068.17373 959.281703,1068.48601 C958.957287,1069.22576 958.628136,1069.96397 958.293285,1070.69891 C957.927366,1071.50082 957.54192,1072.29384 957.186459,1073.09988 C956.998882,1073.52531 956.861513,1073.97232 956.691438,1074.40587 C956.612604,1074.60662 956.520554,1074.80383 956.415821,1074.99205 C956.155959,1075.46009 955.425312,1075.6586 954.953761,1075.39143 C954.876282,1075.34768 954.77409,1075.27708 954.75988,1075.20408 C954.66075,1074.70297 954.359439,1074.19345 954.641086,1073.68922 C955.134025,1072.80522 955.378876,1071.83661 955.635667,1070.87869 C956.062679,1069.28713 956.447726,1067.68282 956.794021,1066.07169 C957.032124,1064.96331 957.18097,1063.83505 957.35865,1062.71362 C957.521836,1061.68402 957.669038,1060.65181 957.824744,1059.62093 C957.971686,1058.64515 958.65766,1058.15881 959.494796,1057.8491 C960.018721,1057.65466 960.57173,1057.53819 961.111562,1057.38774 C961.141615,1057.37921 961.175045,1057.38175 961.203474,1057.37077 C961.563672,1057.23218 961.871518,1057.10407 961.996221,1056.6378 C962.373479,1055.22714 962.825294,1053.83619 963.244577,1052.43658 C963.752975,1050.73774 964.25765,1049.03774 964.765035,1047.33851 C965.192248,1045.90771 965.604243,1044.47193 966.056484,1043.04919 C966.333558,1042.17645 966.686069,1041.32756 966.983789,1040.46101 C967.22519,1039.7577 967.409492,1039.03426 967.667429,1038.33734 C967.929942,1037.6269 968.251556,1036.93802 968.547153,1036.24001 C968.873739,1035.46751 969.195968,1034.69246 969.530986,1033.92332 C969.680077,1033.58138 969.815418,1033.22185 970.032009,1032.92536 C970.186096,1032.71459 970.446945,1032.55132 970.694409,1032.44812 C970.972423,1032.33196 971.154324,1032.44126 971.314081,1032.70473 C971.434076,1032.90216 971.575549,1033.09179 971.661176,1033.30375 C971.814463,1033.68396 971.76919,1034.06955 971.593243,1034.4362 C971.203299,1035.25028 970.790791,1036.05432 970.420044,1036.87693 C969.876158,1038.08374 969.348077,1039.29828 968.838899,1040.51998 C968.516047,1041.2933 968.216737,1042.07805 967.949605,1042.87178 C967.692051,1043.63609 967.494682,1044.42029 967.259765,1045.19258 C967.146942,1045.5635 966.996889,1045.92319 966.884067,1046.29411 C966.662363,1047.02102 966.455534,1047.75291 966.242287,1048.48251 C965.985872,1049.3611 965.719635,1050.23695 965.476778,1051.11909 C965.32439,1051.67297 965.216736,1052.23868 965.071132,1052.79416 C964.989033,1053.10801 964.876073,1053.41427 964.766884,1053.72033 C964.595139,1054.20171 964.408518,1054.67813 964.240824,1055.16102 C964.188303,1055.31344 964.175661,1055.47956 964.144764,1055.63957 L964.262063,1055.69873 C964.694528,1055.42996 965.142344,1055.1819 965.557551,1054.88824 C966.776883,1054.02549 968.00707,1053.17509 969.18748,1052.26139 C970.220938,1051.46193 971.195824,1050.58654 972.190313,1049.73749 C972.639095,1049.35402 973.090952,1048.97066 973.511053,1048.55644 C974.319036,1047.75936 975.129068,1046.96235 975.894343,1046.12479 C976.837423,1045.09267 977.744401,1044.0268 978.651685,1042.96197 C979.769414,1041.64934 980.893479,1040.34138 981.971619,1038.99692 C982.689295,1038.10229 983.325778,1037.14292 984.00987,1036.22078 C984.30635,1035.82071 984.621871,1035.43362 984.943974,1035.05394 C985.71695,1034.14277 986.505541,1033.2448 987.274867,1032.33043 C987.70164,1031.82306 988.219701,1031.43415 988.77625,1031.08899 C989.027271,1030.93291 989.202048,1030.98176 989.387005,1031.23858 C989.431705,1031.30034 989.50228,1031.34589 989.539334,1031.41115 Z M676.800284,1073.5853 C676.731901,1073.67286 676.678488,1073.76266 676.605295,1073.83124 C676.209938,1074.20289 675.825706,1074.58895 675.406379,1074.93206 C674.887749,1075.35687 674.270838,1075.62844 673.637167,1075.81186 C672.681838,1076.08803 671.693528,1076.25086 670.74101,1076.53465 C670.05358,1076.73946 669.371886,1076.94652 668.660933,1077.0414 C667.49023,1077.19718 666.321798,1077.38587 665.145938,1077.48367 C663.901813,1077.58729 662.648396,1077.57499 661.464888,1077.08869 C660.981716,1076.88986 660.482783,1076.69185 660.118076,1076.28374 C660.097672,1076.2608 660.06843,1076.24609 660.04343,1076.22744 C659.875826,1076.10051 659.651265,1076.00819 659.550398,1075.84084 C659.080297,1075.06206 658.601273,1074.29391 658.538426,1073.33167 C658.444919,1071.9056 658.514491,1070.50096 658.840488,1069.10869 C658.946561,1068.65682 659.030231,1068.20007 659.150851,1067.61567 C658.734063,1067.69996 658.420346,1067.76117 658.107168,1067.8265 C656.826135,1068.09574 655.534532,1068.26611 654.223323,1068.31232 C653.486744,1068.33791 653.152375,1067.75642 653.072585,1067.04429 C653.003203,1066.42589 653.549672,1065.93844 654.197905,1065.8571 C655.277942,1065.72175 656.352321,1065.54277 657.427685,1065.37477 C658.149201,1065.26145 658.867452,1065.12407 659.590365,1065.01969 C659.880833,1064.97785 660.009711,1064.82297 660.108019,1064.56407 C660.816376,1062.70222 661.529774,1060.84295 662.258035,1058.98898 C662.54671,1058.25414 662.877218,1057.53581 663.21414,1056.75135 C662.793973,1056.80508 662.429397,1056.85357 662.064244,1056.89897 C660.504692,1057.09315 658.945877,1057.29558 657.384705,1057.47739 C656.628839,1057.56558 655.869086,1057.62797 655.109257,1057.67292 C654.884072,1057.6866 654.652357,1057.60327 654.424723,1057.55975 C654.364593,1057.54807 654.295983,1057.53439 654.250753,1057.49758 C653.797189,1057.12672 653.592575,1056.61989 653.606661,1056.05981 C653.620229,1055.52434 654.008967,1055.20513 654.450725,1054.96404 C654.514881,1054.929 654.602161,1054.91734 654.676877,1054.92268 C655.964347,1055.01758 657.21472,1054.71546 658.480654,1054.57498 C660.057314,1054.4002 661.635816,1054.24121 663.213238,1054.07399 C663.305925,1054.06423 663.396757,1054.03901 663.488915,1054.02479 C663.854473,1053.96778 664.293619,1054.01697 664.565328,1053.82672 C664.84122,1053.63422 664.946601,1053.20217 665.135699,1052.88009 C665.867747,1051.63266 666.593447,1050.3809 667.342925,1049.14365 C667.643451,1048.64727 668.057435,1048.24172 668.5471,1047.92159 C669.140032,1047.53358 669.828513,1047.80798 670.007476,1048.49109 C670.088925,1048.80312 670.081633,1049.10008 669.984412,1049.40621 C669.739977,1050.1768 669.510442,1050.95167 669.26397,1051.72184 C669.218262,1051.86526 669.123509,1051.99295 669.050064,1052.12753 C668.852397,1052.48933 668.654058,1052.85076 668.403459,1053.30818 C668.901246,1053.24519 669.280213,1053.20575 669.656726,1053.14844 C671.147701,1052.92005 672.635436,1052.66692 674.129405,1052.46053 C675.438482,1052.27948 676.753067,1052.13659 678.067496,1051.99814 C679.920197,1051.80291 681.773311,1051.60563 683.629926,1051.45499 C684.271667,1051.40284 684.924679,1051.48824 685.674499,1051.51442 C685.49877,1051.78669 685.371002,1051.98812 685.239914,1052.1867 C685.146747,1052.32778 685.058206,1052.47347 684.950731,1052.6031 C684.886074,1052.68191 684.798529,1052.75991 684.705385,1052.79257 C684.50073,1052.86477 684.287531,1052.91718 684.074619,1052.96139 C683.345594,1053.11344 682.616288,1053.26377 681.885254,1053.4048 C680.953479,1053.58432 680.020294,1053.75523 679.087403,1053.92753 C677.756235,1054.17312 676.424256,1054.41254 675.094005,1054.66125 C673.457719,1054.96665 671.820797,1055.27066 670.187072,1055.59086 C669.331633,1055.75867 668.48353,1055.96129 667.631019,1056.14323 C667.436661,1056.18501 667.362286,1056.31683 667.288707,1056.48458 C667.027505,1057.07913 666.770931,1057.67828 666.468709,1058.25258 C666.275669,1058.61898 666.017384,1058.95369 665.765709,1059.28521 C665.57174,1059.54111 665.092847,1059.44504 665.025035,1059.11467 C664.968295,1058.83942 664.984501,1058.52225 665.064049,1058.25209 C665.233621,1057.67624 665.465146,1057.11862 665.698156,1056.47932 C665.11555,1057.1201 662.344811,1063.89863 662.393498,1064.54162 C662.727931,1064.46505 663.055922,1064.3869 663.385369,1064.31598 C664.812793,1064.00739 666.243509,1063.71225 667.66797,1063.39056 C669.170007,1063.05106 670.667307,1062.69052 672.164912,1062.33103 C672.557414,1062.237 672.936013,1062.071 673.332224,1062.00788 C675.162681,1061.71508 676.923202,1061.1233 678.738289,1060.77113 C679.318189,1060.65833 679.904802,1060.57861 680.491692,1060.51052 C680.598479,1060.49851 680.739781,1060.59511 680.82987,1060.67931 C680.926588,1060.76956 680.981399,1060.90418 681.050438,1061.0133 C680.882516,1061.2383 680.725779,1061.44659 680.571386,1061.65633 C680.364225,1061.93742 680.093052,1062.1123 679.780125,1062.2782 C678.596376,1062.90551 677.296802,1063.17684 676.0386,1063.57581 C675.830731,1063.64209 675.611551,1063.6895 675.421937,1063.7913 C674.489256,1064.29057 673.44507,1064.43743 672.453351,1064.74687 C671.815033,1064.94587 671.16829,1065.12165 670.51994,1065.28473 C669.449939,1065.55382 668.377598,1065.81153 667.302847,1066.05993 C666.226023,1066.30894 665.145918,1066.54415 664.065825,1066.77903 C663.306227,1066.94471 662.546958,1067.11076 661.782975,1067.25509 C661.48998,1067.31053 661.357158,1067.46082 661.312036,1067.74415 C661.135942,1068.84957 660.898185,1069.94804 660.786169,1071.0598 C660.71193,1071.79494 660.787838,1072.5497 660.845021,1073.29217 C660.873765,1073.66392 661.152289,1073.94453 661.441116,1074.15538 C661.987739,1074.55479 662.601238,1074.81187 663.284022,1074.88701 C664.423374,1075.01197 665.556934,1074.94039 666.686009,1074.78179 C668.426895,1074.53682 670.168136,1074.29152 671.905992,1074.02557 C672.519787,1073.93141 673.12073,1073.7547 673.73408,1073.65368 C674.500175,1073.52721 675.272239,1073.43549 676.043092,1073.33928 C676.312413,1073.30559 676.565034,1073.36811 676.800284,1073.5853 Z M757.346161,1066.47475 C757.546225,1065.85824 757.746288,1065.24172 757.969743,1064.55283 C757.646012,1064.58735 757.398134,1064.61427 757.126931,1064.6431 C757.177266,1065.28786 757.223384,1065.87706 757.269173,1066.46591 L757.346161,1066.47475 Z M776.347627,1062.6592 C776.654112,1062.70718 776.987402,1062.71232 777.203242,1062.97604 C777.551285,1063.40101 777.667905,1063.88117 777.455535,1064.40936 C776.682835,1066.33121 775.908769,1068.25301 775.135056,1070.17448 C774.925717,1070.69422 774.75331,1071.23372 774.496616,1071.72855 C774.054331,1072.58218 773.571355,1073.41592 773.080078,1074.24253 C772.866415,1074.60205 772.206725,1074.8646 771.897314,1074.77308 C771.593993,1074.68348 771.535667,1074.5614 771.606255,1074.25399 C771.933199,1072.82482 772.397804,1071.43979 772.920286,1070.07217 C773.464232,1068.64818 773.995023,1067.21894 774.525483,1065.78935 C774.697633,1065.32577 774.850538,1064.85502 775.02025,1064.36331 C774.657971,1064.24805 774.340025,1064.14631 773.989128,1064.21443 C773.869284,1064.23795 773.738743,1064.23476 773.616926,1064.21683 C772.039713,1063.98629 770.448673,1063.8873 768.861591,1063.91977 C766.558467,1063.9676 764.256984,1064.11536 761.955622,1064.23029 C761.505431,1064.25253 761.058455,1064.32961 760.608529,1064.36383 C760.308457,1064.38687 760.128975,1064.51194 760.036104,1064.81104 C759.374059,1066.95291 758.665951,1069.08189 758.046567,1071.23619 C757.729696,1072.33772 757.565199,1073.48321 757.331636,1074.60851 C757.255945,1074.97388 757.163905,1075.33731 757.108285,1075.70578 C757.04559,1076.12017 757.030174,1076.54202 756.966454,1076.95638 C756.9248,1077.22854 756.836171,1077.49427 756.763575,1077.76125 C756.747493,1077.8202 756.681514,1077.87809 756.68896,1077.92931 C756.766095,1078.46282 756.301821,1078.63369 756.018799,1078.91282 C755.803434,1079.12522 755.477131,1079.00814 755.285122,1078.68883 C754.989656,1078.19797 754.979119,1077.64763 754.995671,1077.10508 C755.053735,1075.18769 755.160343,1073.27097 755.192433,1071.35302 C755.219794,1069.71741 755.192828,1068.08024 755.144246,1066.44506 C755.121574,1065.68396 754.981607,1064.9321 754.632955,1064.23075 C754.497785,1063.95857 754.409468,1063.64733 754.373837,1063.34545 C754.334474,1063.01334 754.571528,1062.76749 754.785381,1062.53965 C755.16512,1062.13531 755.629312,1061.93741 756.192947,1061.92802 C757.00299,1061.91424 757.811898,1061.85459 758.621862,1061.83328 C758.883408,1061.82634 759.005257,1061.71602 759.095604,1061.47942 C759.65119,1060.02574 760.204749,1058.5713 760.790026,1057.12926 C761.304938,1055.86091 761.86133,1054.60939 762.3975,1053.3493 C762.891514,1052.18966 763.379463,1051.02742 763.877529,1049.86928 C764.123584,1049.29713 764.379085,1048.72872 764.64097,1048.16361 C765.762188,1045.74227 767.079276,1043.43175 768.560084,1041.21245 C768.914871,1040.68034 769.265572,1040.14775 769.758391,1039.72751 C770.008695,1039.5136 770.273309,1039.36004 770.606597,1039.53174 C770.92176,1039.69358 771.087656,1039.92818 771.199918,1040.29807 C771.445263,1041.10764 771.010094,1041.68893 770.663884,1042.29863 C770.202887,1043.11022 769.69861,1043.89773 769.200753,1044.68751 C768.902404,1045.16071 768.587297,1045.62409 768.268881,1046.08427 C767.104354,1047.76739 766.156722,1049.5665 765.361728,1051.45097 C764.890007,1052.56966 764.360953,1053.66515 763.902717,1054.78944 C763.308753,1056.2452 762.760626,1057.72034 762.190606,1059.18583 C761.886986,1059.96666 761.578314,1060.74527 761.233695,1061.62283 C761.776592,1061.60006 762.223271,1061.58043 762.669891,1061.56251 C763.853233,1061.51491 765.036032,1061.44369 766.219643,1061.42756 C767.465874,1061.41054 768.713097,1061.44349 769.959538,1061.45966 C771.244945,1061.4765 772.492179,1061.75399 773.742353,1062.01586 C774.261845,1062.12464 774.785655,1062.21749 775.20108,1062.58359 C775.366343,1062.72857 775.512727,1062.89511 775.699692,1063.08462 C775.7341,1063.05915 775.826168,1063.00832 775.895063,1062.93548 C776.022554,1062.80073 776.121415,1062.62394 776.347627,1062.6592 Z M786.927825,1068.22789 C787.139646,1067.71542 787.314388,1067.1972 787.355777,1066.56044 C786.866667,1066.68837 786.442185,1066.77752 786.035385,1066.9186 C785.901407,1066.96488 785.73782,1067.13428 785.718149,1067.26664 C785.647415,1067.74471 785.337847,1068.06908 785.084434,1068.44055 C784.756775,1068.92059 784.126894,1068.86816 783.800128,1068.38237 C783.715252,1068.25662 783.647886,1068.11917 783.576356,1067.9932 C783.280796,1068.04376 783.009356,1068.12833 782.738897,1068.12607 C782.469817,1068.12352 782.201375,1068.03411 781.917675,1067.98008 C781.85779,1068.1083 781.797231,1068.21666 781.755233,1068.33216 C781.510525,1069.00287 781.267488,1069.67466 781.029528,1070.348 C780.825676,1070.92607 780.732591,1071.52512 780.741347,1072.13627 C780.744151,1072.34979 780.790184,1072.56927 780.856615,1072.77269 C780.927068,1072.98823 781.101298,1073.10171 781.334517,1073.03427 C781.571883,1072.9656 781.817327,1072.90064 782.032757,1072.78435 C783.514593,1071.98515 784.78476,1070.92034 785.879608,1069.6459 C786.262853,1069.19995 786.695485,1068.78924 786.927825,1068.22789 Z M803.308382,1064.7456 C804.238486,1065.07427 804.721963,1065.92056 804.832012,1066.74559 C805.043296,1068.32489 804.425395,1069.67276 803.731203,1071.01147 C803.598087,1071.26813 803.523126,1071.55383 803.417556,1071.82479 C803.288354,1072.15546 803.207527,1072.52099 803.008223,1072.80235 C802.804557,1073.09109 802.456728,1073.30638 802.083115,1073.25127 C801.644871,1073.18603 801.232947,1073.00371 801.102648,1072.50392 C801.044142,1072.27922 800.984108,1072.04934 800.971274,1071.81939 C800.955646,1071.54215 801.009296,1071.28888 801.185831,1071.03272 C801.82501,1070.10388 802.325104,1069.10315 802.554282,1067.9859 C802.569923,1067.91018 802.584599,1067.83271 802.591053,1067.75564 C802.626155,1067.32832 802.454398,1067.13421 802.049661,1067.24559 C801.513329,1067.39377 800.955687,1067.54497 800.480236,1067.82045 C799.579951,1068.34206 798.709749,1068.92286 797.867192,1069.53472 C796.707768,1070.3763 795.584569,1071.26772 794.448974,1072.14194 C794.043017,1072.45474 793.651142,1072.78547 793.243561,1073.09581 C793.08334,1073.21779 792.904034,1073.31824 792.723684,1073.40941 C791.928856,1073.81021 791.021391,1073.32295 790.830021,1072.45643 C790.70009,1071.86772 790.834888,1071.34743 791.042722,1070.82182 C791.557389,1069.5213 792.341611,1068.37624 793.12316,1067.22938 C793.322858,1066.93674 793.524217,1066.64553 793.732106,1066.34361 C792.491126,1066.33755 791.297066,1066.32971 790.102778,1066.32837 C789.639015,1066.3279 789.628718,1066.35833 789.567494,1066.82852 C789.407638,1068.0566 788.94686,1069.17534 788.253656,1070.1919 C787.495576,1071.30332 786.60514,1072.30684 785.592978,1073.19187 C784.914201,1073.78551 784.211628,1074.35541 783.485993,1074.8903 C782.998702,1075.25019 782.450656,1075.51835 781.830526,1075.60785 C781.113479,1075.71072 780.427375,1075.63273 779.806873,1075.25296 C779.591576,1075.12061 779.400131,1074.91247 779.26192,1074.69799 C778.466501,1073.46048 778.426285,1072.1146 778.764846,1070.73474 C779.323111,1068.45997 780.248456,1066.33926 781.598188,1064.42594 C782.253081,1063.49765 783.028438,1062.66523 784.042694,1062.08262 C785.077534,1061.48841 786.375978,1062.23866 786.503823,1063.28868 C786.516311,1063.39138 786.560041,1063.49072 786.596056,1063.61511 C786.722326,1063.60344 786.826381,1063.59134 786.930562,1063.5854 C787.365453,1063.56057 787.78453,1063.54785 788.212498,1063.73107 C788.480422,1063.84508 788.822393,1063.79751 789.131549,1063.79839 C789.583296,1063.80014 790.034747,1063.78102 790.486594,1063.77012 C791.482041,1063.74571 792.479103,1063.74359 793.473173,1063.69007 C794.497729,1063.63521 795.456885,1063.30821 796.374041,1062.86176 C796.993722,1062.55984 797.687693,1062.91208 797.852167,1063.56937 C797.986326,1064.10555 797.80702,1064.52921 797.478113,1064.89805 C796.333387,1066.18067 795.399754,1067.61807 794.413765,1069.01704 C794.30041,1069.17794 794.183039,1069.3363 794.113075,1069.5377 C794.61949,1069.13949 795.118028,1068.73176 795.632919,1068.34548 C797.266403,1067.12131 798.902136,1065.90133 800.739038,1064.98319 C801.572381,1064.56664 802.40327,1064.42602 803.308382,1064.7456 Z M723.108557,1068.01596 C723.472455,1067.63432 723.732254,1067.1779 723.973385,1066.58026 C723.492161,1066.66846 723.091696,1066.70646 722.713568,1066.8198 C722.244195,1066.9604 721.763504,1067.04314 721.347148,1067.37951 C720.161794,1068.33682 718.950126,1069.26413 717.715055,1070.15643 C717.350868,1070.41904 717.081757,1070.70138 716.95882,1071.11709 C716.857259,1071.45933 716.771528,1071.80861 716.711357,1072.1605 C716.645647,1072.54366 716.794005,1072.69284 717.172294,1072.64346 C717.355418,1072.61975 717.552858,1072.58766 717.709201,1072.49838 C718.276236,1072.17616 718.869363,1071.8805 719.37857,1071.48068 C720.715274,1070.43016 721.93623,1069.24665 723.108557,1068.01596 Z M724.487829,1063.98348 C725.965616,1064.09357 726.556211,1065.35915 726.310478,1066.53909 C726.11149,1067.49698 725.619101,1068.33586 725.030806,1069.11017 C723.92233,1070.56917 722.59704,1071.81196 721.203335,1072.99628 C720.453272,1073.63326 719.688827,1074.24135 718.860771,1074.77096 C718.409486,1075.0596 717.930672,1075.29426 717.389256,1075.32358 C716.547995,1075.36945 715.784061,1075.26752 715.165324,1074.54341 C714.677403,1073.97127 714.490903,1073.33749 714.382847,1072.64147 C714.371382,1072.56822 714.359917,1072.49497 714.33613,1072.34365 C714.107946,1072.45299 713.91164,1072.53096 713.731142,1072.63616 C712.819226,1073.16762 711.917928,1073.71826 710.998267,1074.23646 C710.662288,1074.42583 710.296429,1074.57962 709.926384,1074.68675 C709.098915,1074.92531 708.313329,1074.8264 707.673579,1074.20449 C707.483714,1074.01967 707.351912,1073.74898 707.260261,1073.49405 C706.905315,1072.50279 707.045053,1071.48845 707.223089,1070.49392 C707.353633,1069.76245 707.578113,1069.04418 707.803014,1068.33345 C708.09363,1067.4157 708.397155,1066.50045 708.747543,1065.60462 C709.176753,1064.50839 709.629661,1063.41913 710.126603,1062.35194 C710.894884,1060.70356 711.702218,1059.07295 712.507515,1057.44193 C713.079073,1056.285 713.680898,1055.14281 714.256826,1053.98808 C714.579388,1053.34061 714.865982,1052.67513 715.188544,1052.02767 C715.444881,1051.51367 715.767866,1051.03039 715.993828,1050.50472 C716.243999,1049.92245 716.426121,1049.31044 716.621656,1048.70608 C716.74781,1048.31579 716.990184,1048.02533 717.318911,1047.79876 C717.963097,1047.35337 718.511937,1047.74808 718.773073,1048.19361 C719.039082,1048.6465 719.040995,1049.12061 718.820302,1049.58352 C718.41392,1050.43738 718.005136,1051.29149 717.564801,1052.12843 C716.957374,1053.28411 716.299896,1054.41376 715.699865,1055.57312 C714.948716,1057.02475 714.223087,1058.48994 713.507221,1059.95957 C712.983665,1061.03472 712.477233,1062.11903 711.993048,1063.21266 C711.401198,1064.54913 710.791727,1065.88088 710.2802,1067.24819 C709.784499,1068.57365 709.399862,1069.94096 709.208321,1071.3516 C709.177914,1071.57593 709.189381,1071.80583 709.178084,1072.12932 C709.497395,1072.04505 709.750831,1072.02551 709.956468,1071.91538 C710.902015,1071.41006 711.840842,1070.89151 712.768686,1070.35445 C713.670726,1069.83153 714.560855,1069.28734 715.446075,1068.73682 C715.625068,1068.62575 715.814139,1068.47092 715.904957,1068.2894 C716.409754,1067.28131 717.061659,1066.37002 717.768744,1065.50444 C718.585497,1064.50519 719.498169,1063.58966 720.512544,1062.78816 C721.15829,1062.27853 721.891072,1062.01887 722.738085,1062.18047 C723.255191,1062.27925 723.765783,1062.78001 723.835502,1063.3006 C723.862072,1063.49956 723.907209,1063.69575 723.949797,1063.9257 C724.128674,1063.94529 724.307701,1063.97035 724.487829,1063.98348 Z M703.456849,1067.29564 C704.032675,1066.29071 704.253789,1065.18892 704.493856,1063.95577 C704.255632,1064.01962 704.077581,1064.02537 703.950171,1064.10882 C703.470981,1064.42282 702.991671,1064.74024 702.542865,1065.09497 C701.452851,1065.95676 700.487564,1066.9392 699.652631,1068.05752 C698.691735,1069.34519 697.873463,1070.72095 697.047441,1072.09336 C696.672742,1072.71575 696.327508,1073.35627 695.942253,1074.03609 C696.072404,1074.04063 696.147187,1074.05385 696.219011,1074.04404 C697.153851,1073.91389 698.02578,1073.58727 698.851441,1073.14582 C700.519141,1072.25427 701.637422,1070.83768 702.516787,1069.21096 C702.854982,1068.58593 703.103921,1067.91161 703.456849,1067.29564 Z M705.746837,1061.64951 C706.783033,1062.2897 706.843881,1063.29942 706.682276,1064.32291 C706.424519,1065.95492 705.697448,1067.43203 704.998694,1068.91115 C704.49453,1069.97946 703.938301,1071.02064 703.272137,1071.99744 C702.368438,1073.32199 701.299889,1074.49953 699.917176,1075.3299 C699.094472,1075.82377 698.202277,1076.1921 697.245802,1076.39332 C696.49331,1076.55139 695.741703,1076.62536 694.978426,1076.58297 C694.689656,1076.56639 694.560441,1076.71134 694.453756,1076.94566 C693.976954,1077.9944 693.48802,1079.03793 693.008862,1080.08557 C692.277532,1081.68462 691.552255,1083.28663 690.821267,1084.8857 C690.259136,1086.11547 689.689585,1087.34224 689.128125,1088.57238 C688.66295,1089.59177 688.197409,1090.61183 687.746378,1091.63753 C687.580285,1092.01582 687.331469,1092.27528 686.939076,1092.41514 C686.541134,1092.55721 686.209467,1092.47619 685.917627,1092.12638 C685.469554,1091.58847 685.465995,1091.1615 685.809905,1090.5589 C686.055439,1090.129 686.251878,1089.66524 686.421391,1089.19883 C687.068884,1087.41489 687.692397,1085.62225 688.333142,1083.83568 C688.758999,1082.64938 689.210202,1081.47183 689.628286,1080.28286 C689.989038,1079.25674 690.314986,1078.21846 690.664585,1077.18854 C690.829617,1076.7035 691.028452,1076.22991 691.185358,1075.74253 C691.63378,1074.35078 692.071037,1072.95556 692.508624,1071.56069 C692.946966,1070.1638 693.390725,1068.76846 693.812825,1067.36655 C694.077072,1066.48892 694.314961,1065.60216 694.545004,1064.71479 C694.66353,1064.25891 694.89249,1063.88247 695.252238,1063.5903 C695.351492,1063.50997 695.504358,1063.45169 695.630788,1063.45508 C696.710211,1063.48422 697.112887,1064.34273 696.785994,1065.14361 C696.257159,1066.4385 695.813148,1067.76269 695.400512,1069.09926 C695.075052,1070.15295 694.722855,1071.19852 694.38352,1072.24796 C694.355529,1072.33454 694.335312,1072.42378 694.311726,1072.51154 C694.341568,1072.52866 694.37174,1072.54613 694.401582,1072.56324 C694.650596,1072.12184 694.911363,1071.68666 695.145926,1071.23792 C695.670818,1070.23224 696.314923,1069.29947 696.896047,1068.32893 C697.595561,1067.16107 698.438841,1066.10734 699.323701,1065.08722 C700.150469,1064.13415 701.061369,1063.2596 702.067167,1062.48824 C702.714509,1061.99166 703.427839,1061.63283 704.197629,1061.38096 C704.75743,1061.19735 705.262378,1061.35042 705.746837,1061.64951 Z M948.634845,1058.68331 C948.354643,1058.97964 948.238024,1059.33195 948.125221,1059.7121 C947.963567,1060.25711 947.730466,1060.78149 947.522783,1061.31258 C947.223883,1062.07579 946.935783,1062.84314 946.614989,1063.5967 C946.300551,1064.33474 945.964207,1065.06347 945.614437,1065.78489 C945.182101,1066.67683 944.729931,1067.55884 944.276761,1068.44013 C944.177705,1068.63231 944.046319,1068.81002 943.914088,1068.98257 C943.159079,1069.96687 942.393755,1070.94295 941.642396,1071.93046 C940.900325,1072.90666 939.986727,1073.70177 939.036992,1074.46414 C938.227307,1075.11409 936.987242,1074.87618 936.432268,1074.39267 C935.894899,1073.92415 935.609563,1073.29992 935.45995,1072.62844 C935.285248,1071.84288 935.110257,1071.04602 935.060885,1070.24636 C935.005289,1069.35072 935.068046,1068.44485 935.119622,1067.54577 C935.183921,1066.42926 935.290542,1065.31527 935.374312,1064.19944 C935.380627,1064.11655 935.347046,1064.03022 935.313993,1063.84061 C934.898335,1064.3039 934.335661,1064.54042 934.412475,1065.26921 C934.084269,1065.16746 933.921567,1065.36049 933.765724,1065.57257 C932.832685,1066.83625 931.90531,1068.10422 930.961273,1069.35964 C930.43041,1070.06619 929.838831,1070.72889 929.333699,1071.45275 C928.890849,1072.08746 928.341431,1072.61038 927.778084,1073.12084 C927.057204,1073.77423 925.958496,1073.39624 925.744052,1072.44614 C925.600983,1071.81251 925.606749,1071.20665 925.842217,1070.5753 C926.341834,1069.23561 926.766487,1067.86834 927.244151,1066.5207 C927.762446,1065.05751 928.308784,1063.60419 928.838563,1062.14516 C929.108052,1061.40145 929.347485,1060.64676 929.635854,1059.91088 C930.059709,1058.83088 930.517307,1057.76402 930.957357,1056.6904 C931.093427,1056.35894 931.229167,1056.02714 931.349019,1055.68999 C931.472267,1055.34372 931.738687,1055.12866 932.024708,1054.93993 C932.261016,1054.78401 932.402111,1054.86692 932.529913,1055.12482 C932.781327,1055.63329 932.767376,1056.1797 932.789521,1056.72086 C932.794239,1056.84039 932.750458,1056.9678 932.706092,1057.08254 C931.983785,1058.95211 931.253375,1060.81866 930.534106,1062.68936 C930.24671,1063.43655 929.974801,1064.19079 929.706308,1064.94515 C929.435197,1065.70591 929.178608,1066.47196 928.911879,1067.23459 C928.685828,1067.8803 928.453359,1068.52373 928.226295,1069.16906 C928.207672,1069.22244 928.207598,1069.28332 928.199445,1069.3405 C928.219901,1069.35216 928.241029,1069.36418 928.261485,1069.37584 C928.555023,1069.02081 928.864223,1068.67762 929.138731,1068.30927 C930.189017,1066.90057 931.239633,1065.49222 932.267238,1064.067 C932.84301,1063.26934 933.476017,1062.52703 934.205227,1061.87016 C934.480661,1061.62224 934.786381,1061.39829 935.106526,1061.21178 C935.745756,1060.83975 936.447257,1060.91761 936.951609,1061.41097 C937.086864,1061.54361 937.191145,1061.74049 937.236992,1061.9261 C937.343326,1062.35802 937.433954,1062.79897 937.477334,1063.24135 C937.509186,1063.56328 937.468189,1063.89497 937.436996,1064.22017 C937.342855,1065.21182 937.23372,1066.20192 937.138201,1067.19386 C937.000295,1068.62587 937.010037,1070.05107 937.375534,1071.45517 C937.410507,1071.58978 937.44985,1071.72659 937.511545,1071.85016 C937.693463,1072.21359 937.969794,1072.31216 938.31875,1072.10374 C938.570593,1071.9535 938.818985,1071.77475 939.014939,1071.55996 C939.633017,1070.8828 940.246857,1070.19967 940.823074,1069.48719 C941.625241,1068.49427 942.343693,1067.44028 942.978251,1066.33036 C943.649237,1065.15672 944.187293,1063.92098 944.700806,1062.67309 C945.215756,1061.42321 945.730377,1060.17297 946.232526,1058.9175 C946.363293,1058.59099 946.486084,1058.26763 946.479441,1057.8898 C946.470193,1057.35148 946.897583,1057.05175 947.312591,1056.86171 C947.707794,1056.68056 948.142369,1056.81168 948.503443,1057.06918 C948.560167,1057.10981 948.578808,1057.23222 948.579607,1057.31707 C948.584696,1057.64148 948.590777,1057.95704 948.73043,1058.26734 C948.778692,1058.37402 948.721866,1058.59093 948.634845,1058.68331 Z M839.999096,1054.42473 C840.449266,1055.20623 840.858573,1056.01196 841.274537,1056.81313 C841.890175,1057.99818 841.971955,1059.25078 841.716197,1060.54153 C841.69176,1060.66346 841.634632,1060.79109 841.652132,1060.90696 C841.716124,1061.32714 841.44627,1061.61117 841.250301,1061.91454 C841.029037,1062.2567 840.52098,1062.26119 840.182676,1061.94908 C839.771451,1061.57047 839.707173,1061.05075 839.67472,1060.54035 C839.655311,1060.23425 839.709094,1059.91839 839.763543,1059.61281 C839.848211,1059.13729 839.821916,1058.68558 839.599838,1058.24791 C839.268646,1057.59506 838.961818,1056.93006 838.617736,1056.28394 C838.165158,1055.43429 837.551557,1054.71001 836.790664,1054.11945 C836.403045,1053.81896 835.972036,1053.61511 835.456248,1053.6549 C835.063244,1053.68495 834.938921,1053.76817 834.95943,1054.17007 C834.989811,1054.75941 835.033335,1055.35434 835.147581,1055.93189 C835.334145,1056.87725 835.577515,1057.81194 835.806442,1058.74886 C836.079629,1059.86792 836.40346,1060.97643 836.632905,1062.10421 C837.098577,1064.3908 837.534963,1066.68355 837.944878,1068.98017 C838.176676,1070.27563 838.205302,1071.59101 837.957198,1072.88784 C837.847184,1073.46235 837.630936,1074.02324 837.403388,1074.56492 C837.280646,1074.8575 837.037538,1075.1004 836.839057,1075.35819 C836.631582,1075.62867 836.43395,1075.91111 836.195024,1076.15176 C835.440619,1076.91309 834.466583,1077.24504 833.455295,1077.47821 C831.579945,1077.9107 829.809889,1077.57083 828.113372,1076.72152 C827.683439,1076.50642 827.349855,1076.17669 827.062087,1075.80821 C826.556307,1075.15986 826.505146,1074.08823 826.955847,1073.38539 C827.334207,1072.79528 827.85911,1072.35735 828.5234,1072.11001 C828.898335,1071.97056 829.053993,1072.01841 829.281609,1072.34649 C829.341211,1072.43202 829.362787,1072.57814 829.33831,1072.6816 C829.26048,1073.0103 829.154488,1073.33254 829.056316,1073.65608 C828.999126,1073.84425 828.936189,1074.03051 828.856367,1074.2791 C829.34032,1074.63187 829.919321,1074.77008 830.493287,1074.89581 C831.474882,1075.11136 832.471257,1075.22687 833.453916,1074.92224 C834.498474,1074.59823 835.443162,1074.11751 836.034003,1073.12337 C836.454055,1072.41671 836.506047,1071.64283 836.460789,1070.86247 C836.351788,1068.98884 835.878781,1067.17671 835.457265,1065.35921 C835.098463,1063.81237 834.697934,1062.27537 834.303943,1060.73723 C834.002664,1059.56076 833.65723,1058.39506 833.379395,1057.21326 C833.118748,1056.1073 832.910598,1054.98675 832.97974,1053.8393 C833.031592,1052.98127 833.346543,1052.22854 833.974278,1051.63722 C834.55887,1051.08646 835.271499,1051.01216 836.028415,1051.18771 C837.881172,1051.61769 839.089388,1052.846 839.999096,1054.42473 Z M955.560082,1062.6623 C955.477897,1062.82189 955.350664,1062.95904 955.278631,1063.12172 C955.040223,1063.66097 954.806514,1064.20278 954.592733,1064.75178 C954.250517,1065.62908 953.929559,1066.51465 953.590723,1067.3931 C953.512889,1067.59457 953.395577,1067.78063 953.300866,1067.9757 C952.762656,1069.07873 952.213682,1070.17659 951.693632,1071.28847 C951.441159,1071.82894 951.261033,1072.4034 951.014271,1072.9468 C950.833456,1073.3451 950.600457,1073.71968 950.385665,1074.10174 C950.158118,1074.50627 949.89796,1074.89461 949.69935,1075.31281 C949.382575,1075.98066 948.817016,1076.13328 948.158936,1076.13425 C947.999557,1076.13415 947.924241,1076.04807 947.853085,1075.90159 C947.427237,1075.02107 947.478369,1074.08572 947.550407,1073.15897 C947.598667,1072.54091 947.717664,1071.92464 947.854431,1071.31857 C947.984222,1070.74577 948.16631,1070.18369 948.347277,1069.62431 C948.662856,1068.64792 948.983182,1067.67272 949.323765,1066.70507 C949.715642,1065.59077 950.107896,1064.47546 950.543645,1063.37809 C951.007495,1062.21055 951.514887,1061.05959 952.017191,1059.90742 C952.215699,1059.45297 952.452943,1059.0156 952.669978,1058.56932 C952.968837,1057.9542 953.250913,1057.32994 953.568604,1056.72403 C953.808224,1056.2676 954.194085,1055.95239 954.689298,1055.79662 C955.085972,1055.67127 955.528516,1055.89741 955.578367,1056.30136 C955.641859,1056.81422 955.776431,1057.34836 955.48303,1057.84636 C955.460479,1057.88491 955.459277,1057.9389 955.431769,1057.97249 C954.687504,1058.8744 954.270254,1059.96113 953.74036,1060.98271 C953.363767,1061.70832 953.022433,1062.45261 952.691582,1063.20034 C952.530077,1063.56477 952.442699,1063.96119 952.297658,1064.33406 C952.196983,1064.59219 952.034557,1064.82628 951.936579,1065.08553 C951.733476,1065.62259 951.557378,1066.16983 951.365746,1066.71139 C951.110355,1067.43337 950.848203,1068.15306 950.592469,1068.87503 C950.382202,1069.47032 950.176681,1070.06681 949.969123,1070.66289 L950.068734,1070.70946 C950.370903,1070.17586 950.692221,1069.65216 950.971212,1069.10646 C951.49504,1068.08228 951.98627,1067.04156 952.505387,1066.01516 C952.968656,1065.09933 953.396831,1064.16005 953.938143,1063.29141 C954.595766,1062.23599 955.10931,1061.10473 955.760454,1060.04874 C955.890959,1059.83748 955.989679,1059.60596 956.125176,1059.39864 C956.189123,1059.301 956.306558,1059.23875 956.469365,1059.10147 C956.515762,1059.78064 956.297916,1060.27956 956.08376,1060.77075 C955.919835,1061.14569 955.8278,1061.4992 955.87995,1061.92547 C955.90818,1062.15527 955.684475,1062.42039 955.560082,1062.6623 Z M742.361207,1061.92804 C742.63447,1061.95776 742.872891,1062.03518 742.960687,1062.35154 C742.991078,1062.46067 743.101238,1062.54797 743.179704,1062.65161 C742.968692,1062.9548 742.80495,1063.23637 742.592448,1063.47452 C742.490634,1063.58897 742.301351,1063.6617 742.142611,1063.6825 C741.094601,1063.82136 740.046233,1063.97046 738.993461,1064.05956 C737.42887,1064.19235 735.860106,1064.27814 734.293395,1064.3835 C734.100381,1064.39659 733.911926,1064.40643 733.896532,1064.67096 C733.825466,1065.88333 733.378932,1066.99572 732.963,1068.11328 C732.568567,1069.17345 732.108297,1070.20909 731.72808,1071.27352 C731.362629,1072.29708 731.06914,1073.34606 730.730024,1074.37944 C730.613687,1074.73347 730.469553,1075.08037 730.312724,1075.41863 C730.08778,1075.90533 729.439655,1075.9836 729.075159,1075.57925 C728.767283,1075.23811 728.619308,1074.83312 728.676567,1074.37853 C728.742774,1073.85378 728.851892,1073.3343 728.929019,1072.81029 C729.089971,1071.71734 729.232889,1070.62171 729.400649,1069.52968 C729.523331,1068.72954 729.648439,1067.92845 729.817999,1067.13746 C730.027136,1066.16317 730.277711,1065.19716 730.520794,1064.23021 C730.737681,1063.367 731.14722,1062.61859 731.98065,1062.21915 C732.363968,1062.03553 732.799779,1061.92557 733.223847,1061.86787 C734.537976,1061.68905 735.862677,1061.68743 737.18671,1061.70494 C738.292962,1061.71997 739.400121,1061.70904 740.505927,1061.74663 C741.12562,1061.76758 741.743467,1061.86098 742.361207,1061.92804 Z M686.897694,1073.10389 C686.603841,1073.15451 686.32432,1073.10815 686.148189,1072.84343 C685.813467,1072.3406 685.493463,1071.82769 685.173458,1071.31477 C684.986553,1071.01581 684.812219,1070.70943 684.589018,1070.33328 C684.025057,1070.90049 683.522717,1071.40727 683.0184,1071.91192 C682.930862,1071.9995 682.838992,1072.08385 682.742577,1072.1612 C682.454735,1072.39227 682.144805,1072.59966 681.876426,1072.85125 C681.081188,1073.59678 680.302434,1074.36 679.51545,1075.11403 C679.459898,1075.16716 679.394379,1075.22164 679.32348,1075.24414 C678.850626,1075.39624 678.38752,1075.56305 677.970904,1075.84811 C677.885771,1075.90602 677.730426,1075.86878 677.607802,1075.86416 C677.348914,1075.85375 677.088434,1075.84978 676.83282,1075.81418 C676.710284,1075.79725 676.527655,1075.7382 676.497442,1075.65335 C676.461617,1075.55291 676.520925,1075.34327 676.608084,1075.28612 C677.604773,1074.62868 678.361957,1073.70943 679.211516,1072.89705 C680.132196,1072.01669 680.958846,1071.03762 681.830698,1070.10596 C682.223625,1069.68635 682.628798,1069.27844 683.025047,1068.86168 C683.142237,1068.73785 683.263587,1068.61247 683.352385,1068.46918 C683.402048,1068.38883 683.433656,1068.24765 683.396642,1068.17146 C683.004157,1067.36392 682.596002,1066.56439 682.22243,1065.8225 C681.827236,1065.84667 681.523211,1065.88496 681.220467,1065.87678 C680.954616,1065.86989 680.748146,1065.72964 680.644375,1065.46915 C680.525496,1065.17121 680.324225,1064.91143 680.361184,1064.54847 C680.399727,1064.16949 680.518601,1063.86035 680.809137,1063.6109 C680.95018,1063.48962 681.064226,1063.33832 681.197734,1063.20755 C681.692832,1062.72207 682.488767,1062.67154 683.077082,1063.06215 C683.535706,1063.36649 683.840444,1063.79747 684.08813,1064.2658 C684.341936,1064.74494 684.545549,1065.25105 684.7746,1065.7437 C684.901829,1066.01799 685.035656,1066.28944 685.185545,1066.60044 C685.593242,1066.26719 685.947056,1065.96865 686.310005,1065.68274 C687.202253,1064.97992 688.10731,1064.29226 688.990363,1063.57851 C689.439137,1063.21489 689.906459,1062.88816 690.414657,1062.61519 C690.896014,1062.35667 691.463141,1062.44317 691.809886,1062.84655 C691.839473,1062.88076 691.875972,1062.92273 691.879664,1062.96391 C691.925941,1063.46042 691.960083,1063.96165 691.665354,1064.39975 C691.601491,1064.49499 691.43709,1064.53098 691.312491,1064.57314 C691.110346,1064.64201 690.869769,1064.64592 690.702284,1064.76046 C689.744338,1065.41516 688.767534,1066.04183 687.988442,1066.93226 C687.468347,1067.52632 686.864614,1068.04734 686.270774,1068.62787 C686.328798,1068.76841 686.378881,1068.91108 686.44427,1069.0464 C686.708071,1069.5919 687.0159,1070.12047 687.228416,1070.68504 C687.349559,1071.00633 687.344882,1071.38512 687.348273,1071.73855 C687.35092,1072.01533 687.271133,1072.29232 687.243294,1072.57044 C687.218757,1072.81276 687.197402,1073.05211 686.897694,1073.10389 Z M751.672105,1064.17438 C751.976271,1063.97535 752.510131,1063.98612 752.754567,1064.23407 C753.062114,1064.54545 753.382453,1065.0488 753.072266,1065.65532 C752.781897,1066.22319 752.49784,1066.79641 752.255641,1067.38547 C751.960731,1068.10299 751.710657,1068.83917 751.445097,1069.56832 C751.349426,1069.83005 751.25167,1070.09272 751.176964,1070.36134 C751.068693,1070.74883 751.002045,1071.14906 750.878228,1071.53122 C750.712193,1072.04495 750.533507,1072.55858 750.3061,1073.04725 C750.233281,1073.20306 749.988149,1073.27864 749.823846,1073.39021 C749.459592,1073.29233 749.264734,1073.10357 749.14879,1072.79991 C749.085219,1072.63216 748.942958,1072.49448 748.799547,1072.29179 C748.615785,1072.48066 748.446577,1072.65432 748.277016,1072.8283 C747.743855,1073.37538 747.213781,1073.92223 746.552909,1074.32633 C745.826337,1074.77056 745.07132,1074.77566 744.309117,1074.48705 C743.783868,1074.28846 743.576907,1073.7901 743.373952,1073.3141 C743.015759,1072.47459 743.129691,1071.64096 743.422012,1070.81151 C744.102281,1068.88233 745.138596,1067.1489 746.39857,1065.55326 C746.847658,1064.98477 747.404494,1064.49426 747.951762,1064.01334 C748.172632,1063.8196 748.488676,1063.69178 748.781496,1063.63155 C749.562461,1063.47105 750.044307,1063.84495 750.105845,1064.64879 C750.145492,1065.16868 750.126474,1065.6937 750.126693,1066.21631 C750.126582,1066.30763 750.09701,1066.40031 750.072328,1066.49008 C749.891456,1067.15447 749.565527,1067.34009 748.926473,1067.1194 C748.829153,1067.08557 748.751391,1066.96177 748.691217,1066.86322 C748.622321,1066.75 748.582787,1066.61866 748.527821,1066.48848 C747.365143,1067.25675 745.246385,1071.09445 745.420034,1072.10605 C745.796402,1072.11167 746.067811,1071.88105 746.291376,1071.63953 C747.104648,1070.75952 747.916014,1069.87534 748.67916,1068.95186 C749.143381,1068.39074 749.55842,1067.77866 749.919801,1067.14588 C750.249506,1066.5681 750.479981,1065.9328 750.748989,1065.32041 C750.954064,1064.85421 751.239128,1064.45785 751.672105,1064.17438 Z M955.362935,1044.74013 C955.31111,1044.64734 955.271305,1044.54334 955.202205,1044.46535 C954.863614,1044.08311 954.795368,1043.55949 955.1195,1043.20006 C955.747128,1042.50408 956.502298,1041.98527 957.448527,1041.8326 C957.716132,1041.78927 958.012019,1041.82731 958.279234,1041.89307 C958.876055,1042.04012 959.372771,1042.45831 959.248308,1043.21154 C959.238316,1043.27241 959.242929,1043.33619 959.238349,1043.46736 C959.391439,1043.89237 959.06308,1044.27491 958.880573,1044.66288 C958.790764,1044.8547 958.420862,1044.98714 958.16376,1045.01373 C957.625184,1045.06949 957.100716,1045.13257 956.581853,1045.3094 C956.038413,1045.49461 955.67298,1045.2934 955.362935,1044.74013 Z M780.587081,1048.99794 C780.188413,1049.13143 779.714027,1048.93565 779.443553,1048.48329 C779.135906,1047.96909 778.959898,1047.39724 778.933112,1046.8029 C778.923115,1046.5799 779.038098,1046.3038 779.188057,1046.1329 C779.387161,1045.90625 779.662127,1045.73048 779.933802,1045.59016 C780.063726,1045.52287 780.274181,1045.54903 780.425998,1045.59914 C780.953472,1045.77318 781.35573,1046.42817 781.264303,1046.97973 C781.254032,1047.27385 781.228023,1047.56811 781.236918,1047.86187 C781.251561,1048.34361 780.959442,1048.87346 780.587081,1048.99794 Z M996.027554,1074.85374 C995.179741,1074.85374 994.492453,1074.16645 994.492453,1073.31864 C994.492453,1072.47082 995.008571,1072.23615 995.856384,1072.23615 C996.704198,1072.23615 997.220316,1072.85164 997.220316,1073.69945 C997.220316,1074.54727 996.875367,1074.85374 996.027554,1074.85374 Z M1001.02911,1073.71612 C1001.02911,1072.8683 1001.7164,1072.18101 1002.56422,1072.18101 C1003.41203,1072.18101 1003.6467,1072.69713 1003.6467,1073.54495 C1003.6467,1074.39276 1003.03121,1074.90888 1002.1834,1074.90888 C1001.33559,1074.90888 1001.02911,1074.56393 1001.02911,1073.71612 Z M1007.40036,1073.71612 C1007.40036,1072.8683 1008.08764,1072.18101 1008.93546,1072.18101 C1009.78327,1072.18101 1010.01794,1072.69713 1010.01794,1073.54495 C1010.01794,1074.39276 1009.40245,1074.90888 1008.55464,1074.90888 C1007.70683,1074.90888 1007.40036,1074.56393 1007.40036,1073.71612 Z" id="Shape"></path>
        </g>
    </g>
</svg>